<?xml version="1.0" encoding="UTF-8"?>
<svg id="Layer_1" data-name="Layer 1" xmlns="http://www.w3.org/2000/svg" viewBox="0 0 40 40">
  <defs>
    <style>
      .cls-1 {
        fill: #109488;
      }
    </style>
  </defs>
  <path class="cls-1" d="M25.83,27.19c2.45,0,4.03-2.59,2.9-4.76L19.72,5.03l1.72,9.72c.75,4.23,2,8.96-1.72,12.44h6.11Z"/>
  <polygon class="cls-1" points="19.71 10.34 10.99 27.19 19.71 27.19 19.71 10.34"/>
  <path class="cls-1" d="M8.17,28.68c.17,1.64,2,2.46,3.37,2.86,1.95.57,4.02.51,6.02.26,2.87-.35,5.73-1.07,8.64-.83.48.04.97.11,1.43.26.37.12.85.42,1.24.23,2.56-1.24,2.96-2.78,2.96-2.78H8.17Z"/>
</svg>